/* XPM */
static char * Is_Text_xpm[] = {
"76 76 3 1",
" 	c None",
".	c #FFFFFF",
"+	c #747474",
"                                                                            ",
"                                                                            ",
"                                                                            ",
"                                                                            ",
"                                                                            ",
"                                                                            ",
"                                                                            ",
"      ......   ....            ++++++   ++++            ......   ....       ",
"      ......  ......           ++++++  ++++++           ......  ......      ",
"        ..   ...  ..             ++   +++  ++             ..   ...  ..      ",
"        ..   ..                  ++   ++                  ..   ..           ",
"        ..   ...                 ++   +++                 ..   ...          ",
"        ..   ....                ++   ++++                ..   ....         ",
"       ..     .....             ++     +++++             ..     .....       ",
"       ..       ....            ++       ++++            ..       ....      ",
"       ..   ..    ..            ++   ++    ++            ..   ..    ..      ",
"       ..   ...   ..            ++   +++   ++            ..   ...   ..      ",
"     ......  ......           ++++++  ++++++           ......  ......       ",
"     ......    ...            ++++++    +++            ......    ...        ",
"                                                                            ",
"                                                                            ",
"                                                                            ",
"                                                                            ",
"                                                                            ",
"                                                                            ",
"                                                                            ",
"                                                                            ",
"                                                                            ",
"                                                                            ",
"                                                                            ",
"                                                                            ",
"                                                                            ",
"       ....                     ++++                     ....               ",
"    .......   ......         +++++++   ++++++         .......   ......      ",
"    ......   .......         ++++++   +++++++         ......   .......      ",
"        ..   ...                 ++   +++                 ..   ...          ",
"        ..   ..                  ++   ++                  ..   ..           ",
"       ..    ...                ++    +++                ..    ...          ",
"       ..    .....              ++    +++++              ..    .....        ",
"       ..     ......            ++     ++++++            ..     ......      ",
"       ..        ...            ++        +++            ..        ...      ",
"     .....  ...   ..          +++++  +++   ++          .....  ...   ..      ",
"    ......  ........         ++++++  ++++++++         ......  ........      ",
"    ...      ......          +++      ++++++          ...      ......       ",
"                                                                            ",
"                                                                            ",
"                                                                            ",
"                                                                            ",
"                                                                            ",
"                                                                            ",
"                                                                            ",
"                                                                            ",
"                                                                            ",
"                                                                            ",
"                                                                            ",
"                                                                            ",
"                                                                            ",
"       ....                     ++++                     ....               ",
"     ......   .....           ++++++   +++++           ......   .....       ",
"     ....    .......          ++++    +++++++          ....    .......      ",
"       ..    ... ...            ++    +++ +++            ..    ... ...      ",
"       ..    ...                ++    +++                ..    ...          ",
"       ..    ...                ++    +++                ..    ...          ",
"       ..     .....             ++     +++++             ..     .....       ",
"       ..      .....            ++      +++++            ..      .....      ",
"       ..   ..   ...            ++   ++   +++            ..   ..   ...      ",
"     .....  ...   ..          +++++  +++   ++          .....  ...   ..      ",
"     .....  ........          +++++  ++++++++          .....  ........      ",
"              .....                    +++++                    .....       ",
"                                                                            ",
"                                                                            ",
"                                                                            ",
"                                                                            ",
"                                                                            ",
"                                                                            ",
"                                                                            "};
