/* XPM */
static char * Move_Text_xpm[] = {
"76 76 4 1",
" 	c None",
".	c #FFFFFF",
"+	c #4A5C15",
"@	c #A6B23D",
"                                                                            ",
"   .  ...  ..........       +  +++  ++++++++++       @  @@@  @@@@@@@@@@     ",
"  .   ..   .....      .    +   ++   +++++      +    @   @@   @@@@@      @   ",
"  .        ....        .   +        ++++        +   @        @@@@        @  ",
" ..        ...   ....  .. ++        +++   ++++  ++ @@        @@@   @@@@  @@ ",
" ..         ..  .....   . ++         ++  +++++   + @@         @@  @@@@@   @ ",
" .   .   .  ..  ......  . +   +   +  ++  ++++++  + @   @   @  @@  @@@@@@  @ ",
" .  ..  ..  ..   .....  . +  ++  ++  ++   +++++  + @  @@  @@  @@   @@@@@  @ ",
" .  ......  ..   ....   . +  ++++++  ++   ++++   + @  @@@@@@  @@   @@@@   @ ",
"    ......   ..        ..    ++++++   ++        ++    @@@@@@   @@        @@ ",
"   ........  ...      ...   ++++++++  +++      +++   @@@@@@@@  @@@      @@@ ",
"   ........  ............   ++++++++  ++++++++++++   @@@@@@@@  @@@@@@@@@@@@ ",
" ........................ ++++++++++++++++++++++++ @@@@@@@@@@@@@@@@@@@@@@@@ ",
" ........................ ++++++++++++++++++++++++ @@@@@@@@@@@@@@@@@@@@@@@@ ",
"   .......  ...       ...   +++++++  +++       +++   @@@@@@@  @@@       @@@ ",
"   ......   ...       ...   ++++++   +++       +++   @@@@@@   @@@       @@@ ",
"   .....   ...   ........   +++++   +++   ++++++++   @@@@@   @@@   @@@@@@@@ ",
"    ....   ...   ........    ++++   +++   ++++++++    @@@@   @@@   @@@@@@@@ ",
" .  ...   ....      ..... +  +++   ++++      +++++ @  @@@   @@@@      @@@@@ ",
" .   .    ....      ..... +   +    ++++      +++++ @   @    @@@@      @@@@@ ",
" ..      .....  ......... ++      +++++  +++++++++ @@      @@@@@  @@@@@@@@@ ",
"  .     ......  .........  +     ++++++  +++++++++  @     @@@@@@  @@@@@@@@@ ",
"  ..   .......         .   ++   +++++++         +   @@   @@@@@@@         @  ",
"   .   .......         .    +   +++++++         +    @   @@@@@@@         @  ",
"     ..................       ++++++++++++++++++       @@@@@@@@@@@@@@@@@@   ",
"                                                                            ",
"     .................        +++++++++++++++++        @@@@@@@@@@@@@@@@@    ",
"  .   ...   ...       ..   +   +++   +++       ++   @   @@@   @@@       @@  ",
" ..   ..    ..         .. ++   ++    ++         ++ @@   @@    @@         @@ ",
" ..         ..   ...   .. ++         ++   +++   ++ @@         @@   @@@   @@ ",
" .          ..  .....  .. +          ++  +++++  ++ @          @@  @@@@@  @@ ",
" .  .    .  ..  .....  .. +  +    +  ++  +++++  ++ @  @    @  @@  @@@@@  @@ ",
" .  ..  ..  ..  .....  .. +  ++  ++  ++  +++++  ++ @  @@  @@  @@  @@@@@  @@ ",
" .  ......  ..    ..   .. +  ++++++  ++    ++   ++ @  @@@@@@  @@    @@   @@ ",
" .  ......  ...       ... +  ++++++  +++       +++ @  @@@@@@  @@@       @@@ ",
" .  ......   ...      ... +  ++++++   +++      +++ @  @@@@@@   @@@      @@@ ",
" .  .......  ............ +  +++++++  ++++++++++++ @  @@@@@@@  @@@@@@@@@@@@ ",
" ........................ ++++++++++++++++++++++++ @@@@@@@@@@@@@@@@@@@@@@@@ ",
" ................     ... ++++++++++++++++     +++ @@@@@@@@@@@@@@@@     @@@ ",
"   ......  ...        ...   ++++++  +++        +++   @@@@@@  @@@        @@@ ",
"    .....  ...     ......    +++++  +++     ++++++    @@@@@  @@@     @@@@@@ ",
"    ....   ...  .........    ++++   +++  +++++++++    @@@@   @@@  @@@@@@@@@ ",
" .   ...  ....      ..... +   +++  ++++      +++++ @   @@@  @@@@      @@@@@ ",
" ..  ..   ....      ..... ++  ++   ++++      +++++ @@  @@   @@@@      @@@@@ ",
" ..   .  .....  ......... ++   +  +++++  +++++++++ @@   @  @@@@@  @@@@@@@@@ ",
" ...     .....  ......... +++     +++++  +++++++++ @@@     @@@@@  @@@@@@@@@ ",
" ....   ......  ....   .  ++++   ++++++  ++++   +  @@@@   @@@@@@  @@@@   @  ",
" ....   ......         .  ++++   ++++++         +  @@@@   @@@@@@         @  ",
"  ...   ......        .    +++   ++++++        +    @@@   @@@@@@        @   ",
"    .................        +++++++++++++++++        @@@@@@@@@@@@@@@@@     ",
"                                                                            ",
"      .................        +++++++++++++++++        @@@@@@@@@@@@@@@@@   ",
"   .  ...  ....      ...    +  +++  ++++      +++    @  @@@  @@@@      @@@  ",
"  .    .   ...        ..   +    +   +++        ++   @    @   @@@        @@  ",
" ..        ...   ..    .  ++        +++   ++    +  @@        @@@   @@    @  ",
" ..         ..  ....   .. ++         ++  ++++   ++ @@         @@  @@@@   @@ ",
" ..  .      ..  .....  .. ++  +      ++  +++++  ++ @@  @      @@  @@@@@  @@ ",
" .   .   .  ..  ....   .. +   +   +  ++  ++++   ++ @   @   @  @@  @@@@   @@ ",
" .   .....  ..   ..    .. +   +++++  ++   ++    ++ @   @@@@@  @@   @@    @@ ",
" .  ......  ..        ... +  ++++++  ++        +++ @  @@@@@@  @@        @@@ ",
"    ......  ...      ....    ++++++  +++      ++++    @@@@@@  @@@      @@@@ ",
"    ......  .............    ++++++  +++++++++++++    @@@@@@  @@@@@@@@@@@@@ ",
" ........................ ++++++++++++++++++++++++ @@@@@@@@@@@@@@@@@@@@@@@@ ",
" ..............       ... ++++++++++++++       +++ @@@@@@@@@@@@@@       @@@ ",
"   .......  ...       ...   +++++++  +++       +++   @@@@@@@  @@@       @@@ ",
"   ......   ...  ........   ++++++   +++  ++++++++   @@@@@@   @@@  @@@@@@@@ ",
"    .....   ...  ........    +++++   +++  ++++++++    @@@@@   @@@  @@@@@@@@ ",
" .  ....   ....     ..... +  ++++   ++++     +++++ @  @@@@   @@@@     @@@@@ ",
" .   ...  .....     ..... +   +++  +++++     +++++ @   @@@  @@@@@     @@@@@ ",
" ..   .   .....  ........ ++   +   +++++  ++++++++ @@   @   @@@@@  @@@@@@@@ ",
" ..      ......  ........ ++      ++++++  ++++++++ @@      @@@@@@  @@@@@@@@ ",
"  ..     ......        ..  ++     ++++++        ++  @@     @@@@@@        @@ ",
"  ..    .......        .   ++    +++++++        +   @@    @@@@@@@        @  ",
"  .............  ......    +++++++++++++  ++++++    @@@@@@@@@@@@@  @@@@@@   ",
"    .................        +++++++++++++++++        @@@@@@@@@@@@@@@@@     ",
"                                                                            "};
