/* XPM */
static char * Open_xpm[] = {
"76 76 4 1",
" 	c None",
".	c #FFFFFF",
"+	c #91673C",
"@	c #EEE386",
"                                                                            ",
"   ..................       ++++++++++++++++++       @@@@@@@@@@@@@@@@@@     ",
"  .....    ....       .    +++++    ++++       +    @@@@@    @@@@       @   ",
"  ...       ...        .   +++       +++        +   @@@       @@@        @  ",
" ...   ...   ..   ...   . +++   +++   ++   +++   + @@@   @@@   @@   @@@   @ ",
" ..   .....  ..  ....   . ++   +++++  ++  ++++   + @@   @@@@@  @@  @@@@   @ ",
" ..  ......  ..  ...    . ++  ++++++  ++  +++    + @@  @@@@@@  @@  @@@    @ ",
" ..  ......  .         .. ++  ++++++  +         ++ @@  @@@@@@  @         @@ ",
" ..  ......  .       .... ++  ++++++  +       ++++ @@  @@@@@@  @       @@@@ ",
" ..  .....   .  ......... ++  +++++   +  +++++++++ @@  @@@@@   @  @@@@@@@@@ ",
" ..   ..    ..  ......... ++   ++    ++  +++++++++ @@   @@    @@  @@@@@@@@@ ",
" ...       ...  ......... +++       +++  +++++++++ @@@       @@@  @@@@@@@@@ ",
" ....    .....  ......... ++++    +++++  +++++++++ @@@@    @@@@@  @@@@@@@@@ ",
" ........................ ++++++++++++++++++++++++ @@@@@@@@@@@@@@@@@@@@@@@@ ",
" ....      .........  ... ++++      +++++++++  +++ @@@@      @@@@@@@@@  @@@ ",
" ..        ...   ...   .. ++        +++   +++   ++ @@        @@@   @@@   @@ ",
" ..    .......    ..   .. ++    +++++++    ++   ++ @@    @@@@@@@    @@   @@ ",
" ..  .........     ..  .. ++  +++++++++     ++  ++ @@  @@@@@@@@@     @@  @@ ",
" ..     ......  .   .  .. ++     ++++++  +   +  ++ @@     @@@@@@  @   @  @@ ",
" ..     ......  ..     .. ++     ++++++  ++     ++ @@     @@@@@@  @@     @@ ",
" ..  .........  ...    .. ++  +++++++++  +++    ++ @@  @@@@@@@@@  @@@    @@ ",
"  .  .........  ...    ..  +  +++++++++  +++    ++  @  @@@@@@@@@  @@@    @@ ",
"  .        ...  ....   .   +        +++  ++++   +   @        @@@  @@@@   @  ",
"           ...  .....  .            +++  +++++  +            @@@  @@@@@  @  ",
"     ..................       ++++++++++++++++++       @@@@@@@@@@@@@@@@@@   ",
"                                                                            ",
"     .................        +++++++++++++++++        @@@@@@@@@@@@@@@@@    ",
"  .....    .....      ..   +++++    +++++      ++   @@@@@    @@@@@      @@  ",
" ....       ..         .. ++++       ++         ++ @@@@       @@         @@ ",
" ...        ..    ..   .. +++        ++    ++   ++ @@@        @@    @@   @@ ",
" ..   ....  ..  .....  .. ++   ++++  ++  +++++  ++ @@   @@@@  @@  @@@@@  @@ ",
" ..  .....  ..  ...    .. ++  +++++  ++  +++    ++ @@  @@@@@  @@  @@@    @@ ",
" ..  .....  ..         .. ++  +++++  ++         ++ @@  @@@@@  @@         @@ ",
" ..  .....  ..       .... ++  +++++  ++       ++++ @@  @@@@@  @@       @@@@ ",
" ..   ...   ...  ........ ++   +++   +++  ++++++++ @@   @@@   @@@  @@@@@@@@ ",
" ...        ...  ........ +++        +++  ++++++++ @@@        @@@  @@@@@@@@ ",
" ....      ....  ........ ++++      ++++  ++++++++ @@@@      @@@@  @@@@@@@@ ",
" ........................ ++++++++++++++++++++++++ @@@@@@@@@@@@@@@@@@@@@@@@ ",
" ........................ ++++++++++++++++++++++++ @@@@@@@@@@@@@@@@@@@@@@@@ ",
" .......   .............. +++++++   ++++++++++++++ @@@@@@@   @@@@@@@@@@@@@@ ",
" ..        ...   ....  .. ++        +++   ++++  ++ @@        @@@   @@@@  @@ ",
" ..       ....    ...  .. ++       ++++    +++  ++ @@       @@@@    @@@  @@ ",
" ..  .........     ..  .. ++  +++++++++     ++  ++ @@  @@@@@@@@@     @@  @@ ",
" ..     ......     ..  .. ++     ++++++     ++  ++ @@     @@@@@@     @@  @@ ",
" ..     .....   .   .  .. ++     +++++   +   +  ++ @@     @@@@@   @   @  @@ ",
" ...  .......  ...     .. +++  +++++++  +++     ++ @@@  @@@@@@@  @@@     @@ ",
" ...  ...  ..  ....    .  +++  +++  ++  ++++    +  @@@  @@@  @@  @@@@    @  ",
" ...       ..  .....   .  +++       ++  +++++   +  @@@       @@  @@@@@   @  ",
"  ..     ....  .....       ++     ++++  +++++       @@     @@@@  @@@@@      ",
"    .................        +++++++++++++++++        @@@@@@@@@@@@@@@@@     ",
"                                                                            ",
"      .................        +++++++++++++++++        @@@@@@@@@@@@@@@@@   ",
"   ....    .....      ..    ++++    +++++      ++    @@@@    @@@@@      @@  ",
"  ..        ...        .   ++        +++        +   @@        @@@        @  ",
" ..     .   ...  ....  .  ++     +   +++  ++++  +  @@     @   @@@  @@@@  @  ",
" ..   ....   ..  ....  .. ++   ++++   ++  ++++  ++ @@   @@@@   @@  @@@@  @@ ",
" ..  ......  .    .    .. ++  ++++++  +    +    ++ @@  @@@@@@  @    @    @@ ",
" ..  .....   .         .. ++  +++++   +         ++ @@  @@@@@   @         @@ ",
" ..  ....    .       .... ++  ++++    +       ++++ @@  @@@@    @       @@@@ ",
" ..   ..    ..  ......... ++   ++    ++  +++++++++ @@   @@    @@  @@@@@@@@@ ",
" ...       ...  ......... +++       +++  +++++++++ @@@       @@@  @@@@@@@@@ ",
" ....     ....  ......... ++++     ++++  +++++++++ @@@@     @@@@  @@@@@@@@@ ",
" .............  ......... +++++++++++++  +++++++++ @@@@@@@@@@@@@  @@@@@@@@@ ",
" ........................ ++++++++++++++++++++++++ @@@@@@@@@@@@@@@@@@@@@@@@ ",
" ...       ...  ....  ... +++       +++  ++++  +++ @@@       @@@  @@@@  @@@ ",
" .         ...   ...  ... +         +++   +++  +++ @         @@@   @@@  @@@ ",
" .    ........    ..  ... +    ++++++++    ++  +++ @    @@@@@@@@    @@  @@@ ",
" .  .........      .  ... +  +++++++++      +  +++ @  @@@@@@@@@      @  @@@ ",
" .     ......   .     ... +     ++++++   +     +++ @     @@@@@@   @     @@@ ",
" ..    ......  ..     ... ++    ++++++  ++     +++ @@    @@@@@@  @@     @@@ ",
" ..  ........  ...    ... ++  ++++++++  +++    +++ @@  @@@@@@@@  @@@    @@@ ",
"  .  ........  ....   ...  +  ++++++++  ++++   +++  @  @@@@@@@@  @@@@   @@@ ",
"  .        ..  ....   ..   +        ++  ++++   ++   @        @@  @@@@   @@  ",
"  .        ..  .....  .    +        ++  +++++  +    @        @@  @@@@@  @   ",
"    .................        +++++++++++++++++        @@@@@@@@@@@@@@@@@     ",
"                                                                            "};
