/* XPM */
static char * Push_Text_xpm[] = {
"76 76 4 1",
" 	c None",
".	c #FFFFFF",
"+	c #4F3D1F",
"@	c #91673C",
"                                                                            ",
"   ..................       ++++++++++++++++++       @@@@@@@@@@@@@@@@@@     ",
"  ..      ...  .....  .    ++      +++  +++++  +    @@      @@@  @@@@@  @   ",
"  ..       ..  .....  ..   ++       ++  +++++  ++   @@       @@  @@@@@  @@  ",
" ...  ...  ..  .....  ... +++  +++  ++  +++++  +++ @@@  @@@  @@  @@@@@  @@@ ",
" ...  ..   ..  .....  ... +++  ++   ++  +++++  +++ @@@  @@   @@  @@@@@  @@@ ",
" ..        ..  .....  ... ++        ++  +++++  +++ @@        @@  @@@@@  @@@ ",
" ..       ...  ....   ... ++       +++  ++++   +++ @@       @@@  @@@@   @@@ ",
" ..  ........  ....   ... ++  ++++++++  ++++   +++ @@  @@@@@@@@  @@@@   @@@ ",
" ..  ........   ...  .... ++  ++++++++   +++  ++++ @@  @@@@@@@@   @@@  @@@@ ",
" .   ........        .... +   ++++++++        ++++ @   @@@@@@@@        @@@@ ",
" .  ..........      ..... +  ++++++++++      +++++ @  @@@@@@@@@@      @@@@@ ",
" ........................ ++++++++++++++++++++++++ @@@@@@@@@@@@@@@@@@@@@@@@ ",
" .....    ..........  ... +++++    ++++++++++  +++ @@@@@    @@@@@@@@@@  @@@ ",
" ....     ...  .....  ... ++++     +++  +++++  +++ @@@@     @@@  @@@@@  @@@ ",
" ...    .....  .....  ... +++    +++++  +++++  +++ @@@    @@@@@  @@@@@  @@@ ",
" ...  .......  .....  ... +++  +++++++  +++++  +++ @@@  @@@@@@@  @@@@@  @@@ ",
" ...   ......  ..     ... +++   ++++++  ++     +++ @@@   @@@@@@  @@     @@@ ",
" ....    ....         ... ++++    ++++         +++ @@@@    @@@@         @@@ ",
" .....    ...    ...  ... +++++    +++    +++  +++ @@@@@    @@@    @@@  @@@ ",
" ......   ...  .....  ... ++++++   +++  +++++  +++ @@@@@@   @@@  @@@@@  @@@ ",
"    ...   ...  .....  ...    +++   +++  +++++  +++    @@@   @@@  @@@@@  @@@ ",
"          ...  .....  ..           +++  +++++  ++           @@@  @@@@@  @@  ",
"         ....  .....  ..          ++++  +++++  ++          @@@@  @@@@@  @@  ",
"     ..................       ++++++++++++++++++       @@@@@@@@@@@@@@@@@@   ",
"                                                                            ",
"     .................        +++++++++++++++++        @@@@@@@@@@@@@@@@@    ",
"  ..     ...  ..........   ++     +++  ++++++++++   @@     @@@  @@@@@@@@@@  ",
" ..       ..  ......  ... ++       ++  ++++++  +++ @@       @@  @@@@@@  @@@ ",
" ..   ..  ..   .....  ... ++   ++  ++   +++++  +++ @@   @@  @@   @@@@@  @@@ ",
" ..  ...  ..   .....  ... ++  +++  ++   +++++  +++ @@  @@@  @@   @@@@@  @@@ ",
" ..       ...  .....  ... ++       +++  +++++  +++ @@       @@@  @@@@@  @@@ ",
" ..      ....  .....  ... ++      ++++  +++++  +++ @@      @@@@  @@@@@  @@@ ",
" ..  ........   ...   ... ++  ++++++++   +++   +++ @@  @@@@@@@@   @@@   @@@ ",
" ..  .........   .    ... ++  +++++++++   +    +++ @@  @@@@@@@@@   @    @@@ ",
" ..  .........       .... ++  +++++++++       ++++ @@  @@@@@@@@@       @@@@ ",
" ..  ...........    ..... ++  +++++++++++    +++++ @@  @@@@@@@@@@@    @@@@@ ",
" ........................ ++++++++++++++++++++++++ @@@@@@@@@@@@@@@@@@@@@@@@ ",
" .....   ..........  .... +++++   ++++++++++  ++++ @@@@@   @@@@@@@@@@  @@@@ ",
" ...     ....  ....  .... +++     ++++  ++++  ++++ @@@     @@@@  @@@@  @@@@ ",
" ...   ......  ....   ... +++   ++++++  ++++   +++ @@@   @@@@@@  @@@@   @@@ ",
" ..   .......  .....  ... ++   +++++++  +++++  +++ @@   @@@@@@@  @@@@@  @@@ ",
" ..   .......  ..     ... ++   +++++++  ++     +++ @@   @@@@@@@  @@     @@@ ",
" ...   ......         ... +++   ++++++         +++ @@@   @@@@@@         @@@ ",
" ...     ....      .  ... +++     ++++      +  +++ @@@     @@@@      @  @@@ ",
" .....    ...   ....   .. +++++    +++   ++++   ++ @@@@@    @@@   @@@@   @@ ",
" .  ...   ...   .....  .  +  +++   +++   +++++  +  @  @@@   @@@   @@@@@  @  ",
" .        ....  .....  .  +        ++++  +++++  +  @        @@@@  @@@@@  @  ",
"         .....  .....             +++++  +++++             @@@@@  @@@@@     ",
"    .................        +++++++++++++++++        @@@@@@@@@@@@@@@@@     ",
"                                                                            ",
"      .................        +++++++++++++++++        @@@@@@@@@@@@@@@@@   ",
"   ..     ...  .........    ++     +++  +++++++++    @@     @@@  @@@@@@@@@  ",
"  ...      ..  ......  .   +++      ++  ++++++  +   @@@      @@  @@@@@@  @  ",
" ....  ..  ..  ......  .  ++++  ++  ++  ++++++  +  @@@@  @@  @@  @@@@@@  @  ",
" ...   ..  ..  .....   .. +++   ++  ++  +++++   ++ @@@   @@  @@  @@@@@   @@ ",
" ...       ..   ....  ... +++       ++   ++++  +++ @@@       @@   @@@@  @@@ ",
" ...      ....  ....  ... +++      ++++  ++++  +++ @@@      @@@@  @@@@  @@@ ",
" ..   ........   ..   ... ++   ++++++++   ++   +++ @@   @@@@@@@@   @@   @@@ ",
" ..  .........        ... ++  +++++++++        +++ @@  @@@@@@@@@        @@@ ",
" ..  ..........      .... ++  ++++++++++      ++++ @@  @@@@@@@@@@      @@@@ ",
" ..  ...........   ...... ++  +++++++++++   ++++++ @@  @@@@@@@@@@@   @@@@@@ ",
" ........................ ++++++++++++++++++++++++ @@@@@@@@@@@@@@@@@@@@@@@@ ",
" ....    ..........  .... ++++    ++++++++++  ++++ @@@@    @@@@@@@@@@  @@@@ ",
" ...     ....  ....  .... +++     ++++  ++++  ++++ @@@     @@@@  @@@@  @@@@ ",
" ...   ......  ....  .... +++   ++++++  ++++  ++++ @@@   @@@@@@  @@@@  @@@@ ",
" ...  .......  ..    .... +++  +++++++  ++    ++++ @@@  @@@@@@@  @@    @@@@ ",
" ...   ......         ... +++   ++++++         +++ @@@   @@@@@@         @@@ ",
" ...     ....     ..  ... +++     ++++     ++  +++ @@@     @@@@     @@  @@@ ",
" ....     ...  .....  ... ++++     +++  +++++  +++ @@@@     @@@  @@@@@  @@@ ",
" ......   ...  .....  ... ++++++   +++  +++++  +++ @@@@@@   @@@  @@@@@  @@@ ",
"     ...  ...  .....  ...     +++  +++  +++++  +++     @@@  @@@  @@@@@  @@@ ",
"          ...  .....  ..           +++  +++++  ++           @@@  @@@@@  @@  ",
"  .      ....  ........    +      ++++  ++++++++    @      @@@@  @@@@@@@@   ",
"    .................        +++++++++++++++++        @@@@@@@@@@@@@@@@@     ",
"                                                                            "};
