/* XPM */
static char * Stop_Text_xpm[] = {
"76 76 4 1",
" 	c None",
".	c #FFFFFF",
"+	c #2C351F",
"@	c #4A5C15",
"                                                                            ",
"   ..................       ++++++++++++++++++       @@@@@@@@@@@@@@@@@@     ",
"  ..       ..........      ++       ++++++++++      @@       @@@@@@@@@@     ",
"  .        ....        .   +        ++++        +   @        @@@@        @  ",
" ..   .......         ... ++   +++++++         +++ @@   @@@@@@@         @@@ ",
" ..    ......   .  ...... ++    ++++++   +  ++++++ @@    @@@@@@   @  @@@@@@ ",
" ...    .........  ...... +++    +++++++++  ++++++ @@@    @@@@@@@@@  @@@@@@ ",
" ....    ........  ...... ++++    ++++++++  ++++++ @@@@    @@@@@@@@  @@@@@@ ",
" ......   .......  ...... ++++++   +++++++  ++++++ @@@@@@   @@@@@@@  @@@@@@ ",
" .  ....  .......  ...... +  ++++  +++++++  ++++++ @  @@@@  @@@@@@@  @@@@@@ ",
" .   ...  .......  ...... +   +++  +++++++  ++++++ @   @@@  @@@@@@@  @@@@@@ ",
" ..       .......  ...... ++       +++++++  ++++++ @@       @@@@@@@  @@@@@@ ",
" ...     ........  ...... +++     ++++++++  ++++++ @@@     @@@@@@@@  @@@@@@ ",
" ........................ ++++++++++++++++++++++++ @@@@@@@@@@@@@@@@@@@@@@@@ ",
" .............       .... +++++++++++++       ++++ @@@@@@@@@@@@@       @@@@ ",
" ...      ....        ... +++      ++++        +++ @@@      @@@@        @@@ ",
" ..        ...  ....  ... ++        +++  ++++  +++ @@        @@@  @@@@  @@@ ",
" .   ...   ...   ...  ... +   +++   +++   +++  +++ @   @@@   @@@   @@@  @@@ ",
" .  .....  ...        ... +  +++++  +++        +++ @  @@@@@  @@@        @@@ ",
" .  .....  ...      ..... +  +++++  +++      +++++ @  @@@@@  @@@      @@@@@ ",
" .  .....  ...  ......... +  +++++  +++  +++++++++ @  @@@@@  @@@  @@@@@@@@@ ",
"       ..  ...  .........       ++  +++  +++++++++       @@  @@@  @@@@@@@@@ ",
"  .        ...  ........   +        +++  ++++++++   @        @@@  @@@@@@@@  ",
"   ..     ....  ........    ++     ++++  ++++++++    @@     @@@@  @@@@@@@@  ",
"     ..................       ++++++++++++++++++       @@@@@@@@@@@@@@@@@@   ",
"                                                                            ",
"     .................        +++++++++++++++++        @@@@@@@@@@@@@@@@@    ",
"  ..      ..    ........   ++      ++    ++++++++   @@      @@    @@@@@@@@  ",
" ..       ..           .. ++       ++           ++ @@       @@           @@ ",
" ..  ..........        .. ++  ++++++++++        ++ @@  @@@@@@@@@@        @@ ",
" ..  ...........  ....... ++  +++++++++++  +++++++ @@  @@@@@@@@@@@  @@@@@@@ ",
" ..    .........  ....... ++    +++++++++  +++++++ @@    @@@@@@@@@  @@@@@@@ ",
" ..     ........  ....... ++     ++++++++  +++++++ @@     @@@@@@@@  @@@@@@@ ",
" ....    .......  ....... ++++    +++++++  +++++++ @@@@    @@@@@@@  @@@@@@@ ",
" ......  ........  ...... ++++++  ++++++++  ++++++ @@@@@@  @@@@@@@@  @@@@@@ ",
" .  ...  ........  ...... +  +++  ++++++++  ++++++ @  @@@  @@@@@@@@  @@@@@@ ",
" .       ........  ...... +       ++++++++  ++++++ @       @@@@@@@@  @@@@@@ ",
" ..     ................. ++     +++++++++++++++++ @@     @@@@@@@@@@@@@@@@@ ",
" ................   ..... ++++++++++++++++   +++++ @@@@@@@@@@@@@@@@   @@@@@ ",
" ....    .....       .... ++++    +++++       ++++ @@@@    @@@@@       @@@@ ",
" ..        ...       .... ++        +++       ++++ @@        @@@       @@@@ ",
" ..   ..    ..  ...  .... ++   ++    ++  +++  ++++ @@   @@    @@  @@@  @@@@ ",
" .   ....   ..  ...  .... +   ++++   ++  +++  ++++ @   @@@@   @@  @@@  @@@@ ",
" .   .....  ..       .... +   +++++  ++       ++++ @   @@@@@  @@       @@@@ ",
" .   ....   ..      ..... +   ++++   ++      +++++ @   @@@@   @@      @@@@@ ",
" .   ...   ....  ........ +   +++   ++++  ++++++++ @   @@@   @@@@  @@@@@@@@ ",
" .    .    ....  .......  +    +    ++++  +++++++  @    @    @@@@  @@@@@@@  ",
" ..       .....  .......  ++       +++++  +++++++  @@       @@@@@  @@@@@@@  ",
"  ...    ......  ......    +++    ++++++  ++++++    @@@    @@@@@@  @@@@@@   ",
"    .................        +++++++++++++++++        @@@@@@@@@@@@@@@@@     ",
"                                                                            ",
"      .................        +++++++++++++++++        @@@@@@@@@@@@@@@@@   ",
"   .....................    +++++++++++++++++++++    @@@@@@@@@@@@@@@@@@@@@  ",
"  ..      ...          .   ++      +++          +   @@      @@@          @  ",
" ..       ...          .  ++       +++          +  @@       @@@          @  ",
" ..  ............  ...... ++  ++++++++++++  ++++++ @@  @@@@@@@@@@@@  @@@@@@ ",
" ..   ...........  ...... ++   +++++++++++  ++++++ @@   @@@@@@@@@@@  @@@@@@ ",
" ..     .........   ..... ++     +++++++++   +++++ @@     @@@@@@@@@   @@@@@ ",
" ...     .........  ..... +++     +++++++++  +++++ @@@     @@@@@@@@@  @@@@@ ",
" .....   .........  ..... +++++   +++++++++  +++++ @@@@@   @@@@@@@@@  @@@@@ ",
" .   ..  .........  ..... +   ++  +++++++++  +++++ @   @@  @@@@@@@@@  @@@@@ ",
" .       .........  ..... +       +++++++++  +++++ @       @@@@@@@@@  @@@@@ ",
" ..     ..........  ..... ++     ++++++++++  +++++ @@     @@@@@@@@@@  @@@@@ ",
" ........................ ++++++++++++++++++++++++ @@@@@@@@@@@@@@@@@@@@@@@@ ",
" ............        .... ++++++++++++        ++++ @@@@@@@@@@@@        @@@@ ",
" ...     ....         ... +++     ++++         +++ @@@     @@@@         @@@ ",
" ..       ...  ....   ... ++       +++  ++++   +++ @@       @@@  @@@@   @@@ ",
" ..  ...   ..   ...   ... ++  +++   ++   +++   +++ @@  @@@   @@   @@@   @@@ ",
" ..  ...   ..         ... ++  +++   ++         +++ @@  @@@   @@         @@@ ",
" ..  ...   ...       .... ++  +++   +++       ++++ @@  @@@   @@@       @@@@ ",
" ..   ..   ...  ......... ++   ++   +++  +++++++++ @@   @@   @@@  @@@@@@@@@ ",
"  .   ..  ....   ........  +   ++  ++++   ++++++++  @   @@  @@@@   @@@@@@@@ ",
"  ..      .....  .......   ++      +++++  +++++++   @@      @@@@@  @@@@@@@  ",
"  ...    ......  ......    +++    ++++++  ++++++    @@@    @@@@@@  @@@@@@   ",
"    .................        +++++++++++++++++        @@@@@@@@@@@@@@@@@     ",
"                                                                            "};
