/* XPM */
static char * Win_Text_xpm[] = {
"51 76 3 1",
" 	c None",
".	c #818100",
"+	c #FFFF00",
"                                                   ",
"                                                   ",
"                                                   ",
"                                                   ",
"                                                   ",
"                                                   ",
"                                                   ",
"          ..                       ++              ",
" ..       ..          ..  ++       ++          ++  ",
" ..       .. .. ..    ..  ++       ++ ++ ++    ++  ",
" ..       .. .. ...   ..  ++       ++ ++ +++   ++  ",
" ..       .. .. ...  ..   ++       ++ ++ +++  ++   ",
" ...     ... .. .... ..   +++     +++ ++ ++++ ++   ",
"  ..  .. ..  .. .......    ++  ++ ++  ++ +++++++   ",
"  .. ... ..  .. .. ....    ++ +++ ++  ++ ++ ++++   ",
"  .........  .. ..  ...    +++++++++  ++ ++  +++   ",
"   ........  .. ..  ...     ++++++++  ++ ++  +++   ",
"   ... ...   .. ..   ..     +++ +++   ++ ++   ++   ",
"   ..  ...   .. ..          ++  +++   ++ ++        ",
"                                                   ",
"                                                   ",
"                                                   ",
"                                                   ",
"                                                   ",
"                                                   ",
"                                                   ",
"                                                   ",
"                                                   ",
"                                                   ",
"                                                   ",
"                                                   ",
"                                                   ",
" ..        ..             ++        ++             ",
" ..       ...             ++       +++             ",
" ..       ... .. ..  ..   ++       +++ ++ ++  ++   ",
" ..       ..  .. ..  ..   ++       ++  ++ ++  ++   ",
" ...      .. ... ..  ..   +++      ++ +++ ++  ++   ",
"  ..     ... ..  ... ..    ++     +++ ++  +++ ++   ",
"  .. ... ..  ..  ... ..    ++ +++ ++  ++  +++ ++   ",
"  .. ... ..  .. .... ..    ++ +++ ++  ++ ++++ ++   ",
"  .........  .. .......    +++++++++  ++ +++++++   ",
"   .......  ... .. ....     +++++++  +++ ++ ++++   ",
"   ... ...  ..  .. ....     +++ +++  ++  ++ ++++   ",
"   ... ...  ..  ..  ..      +++ +++  ++  ++  ++    ",
"   ..                       ++                     ",
"                                                   ",
"                                                   ",
"                                                   ",
"                                                   ",
"                                                   ",
"                                                   ",
"                                                   ",
"                                                   ",
"                                                   ",
"                                                   ",
"                                                   ",
"                                                   ",
"           ..                       ++             ",
" ..       ...     ..  ..  ++       +++     ++  ++  ",
" ..       ... ..  ..  ..  ++       +++ ++  ++  ++  ",
" ..       ..  ..  ..  ..  ++       ++  ++  ++  ++  ",
" ..      ...  .. .... ..  ++      +++  ++ ++++ ++  ",
" ..  ..  ..   .. .... ..  ++  ++  ++   ++ ++++ ++  ",
" ....... ..  ... .......  +++++++ ++  +++ +++++++  ",
"  .........  ..  .......   +++++++++  ++  +++++++  ",
"  ........   .. ... ...    ++++++++   ++ +++ +++   ",
"  ... ....   .. ... ...    +++ ++++   ++ +++ +++   ",
"  ...  ..    .. ..  ...    +++  ++    ++ ++  +++   ",
"       ..    .. ..   ..         ++    ++ ++   ++   ",
"                                                   ",
"                                                   ",
"                                                   ",
"                                                   ",
"                                                   ",
"                                                   ",
"                                                   "};
