/* XPM */
static char * You_Text_xpm[] = {
"76 76 4 1",
" 	c None",
".	c #FFFFFF",
"+	c #682A4B",
"@	c #DA366A",
"                                                                            ",
"   ..................       ++++++++++++++++++       @@@@@@@@@@@@@@@@@@     ",
"  .....................    +++++++++++++++++++++    @@@@@@@@@@@@@@@@@@@@@   ",
"  ......................   ++++++++++++++++++++++   @@@@@@@@@@@@@@@@@@@@@@  ",
" ........................ ++++++++++++++++++++++++ @@@@@@@@@@@@@@@@@@@@@@@@ ",
" ........................ ++++++++++++++++++++++++ @@@@@@@@@@@@@@@@@@@@@@@@ ",
" ........................ ++++++++++++++++++++++++ @@@@@@@@@@@@@@@@@@@@@@@@ ",
"   .....  ...............   +++++  +++++++++++++++   @@@@@  @@@@@@@@@@@@@@@ ",
"   .....  ...............   +++++  +++++++++++++++   @@@@@  @@@@@@@@@@@@@@@ ",
"   .....  ......  ....  .   +++++  ++++++  ++++  +   @@@@@  @@@@@@  @@@@  @ ",
" .  ...   .    .  ....  . +  +++   +    +  ++++  + @  @@@   @    @  @@@@  @ ",
" .       .        ....  . +       +        ++++  + @       @        @@@@  @ ",
" ..     .   .     ....  . ++     +   +     ++++  + @@     @   @     @@@@  @ ",
" ...  ...   ..    ....  . +++  +++   ++    ++++  + @@@  @@@   @@    @@@@  @ ",
" ...  ...  ...     ..   . +++  +++  +++     ++   + @@@  @@@  @@@     @@   @ ",
" ...  ...  ...  .       . +++  +++  +++  +       + @@@  @@@  @@@  @       @ ",
" ...  ...   .   .      .. +++  +++   +   +      ++ @@@  @@@   @   @      @@ ",
" ...  ....     ...    ... +++  ++++     +++    +++ @@@  @@@@     @@@    @@@ ",
" ..........   ........... ++++++++++   +++++++++++ @@@@@@@@@@   @@@@@@@@@@@ ",
" ........................ ++++++++++++++++++++++++ @@@@@@@@@@@@@@@@@@@@@@@@ ",
" ........................ ++++++++++++++++++++++++ @@@@@@@@@@@@@@@@@@@@@@@@ ",
"  .......................  +++++++++++++++++++++++  @@@@@@@@@@@@@@@@@@@@@@@ ",
"  ......................   ++++++++++++++++++++++   @@@@@@@@@@@@@@@@@@@@@@  ",
"   .....................    +++++++++++++++++++++    @@@@@@@@@@@@@@@@@@@@@  ",
"     ..................       ++++++++++++++++++       @@@@@@@@@@@@@@@@@@   ",
"                                                                            ",
"     .................        +++++++++++++++++        @@@@@@@@@@@@@@@@@    ",
"  ......................   ++++++++++++++++++++++   @@@@@@@@@@@@@@@@@@@@@@  ",
" ........................ ++++++++++++++++++++++++ @@@@@@@@@@@@@@@@@@@@@@@@ ",
" ........................ ++++++++++++++++++++++++ @@@@@@@@@@@@@@@@@@@@@@@@ ",
" ........................ ++++++++++++++++++++++++ @@@@@@@@@@@@@@@@@@@@@@@@ ",
" ........................ ++++++++++++++++++++++++ @@@@@@@@@@@@@@@@@@@@@@@@ ",
"   .....  ...............   +++++  +++++++++++++++   @@@@@  @@@@@@@@@@@@@@@ ",
"   .....  ......  .......   +++++  ++++++  +++++++   @@@@@  @@@@@@  @@@@@@@ ",
"    ...   ......  ....  .    +++   ++++++  ++++  +    @@@   @@@@@@  @@@@  @ ",
" .   ..   ......  ....  . +   ++   ++++++  ++++  + @   @@   @@@@@@  @@@@  @ ",
" ..      .     .  ....  . ++      +     +  ++++  + @@      @     @  @@@@  @ ",
" ...    .         ...   . +++    +         +++   + @@@    @         @@@   @ ",
" ....  .    .      ..   . ++++  +    +      ++   + @@@@  @    @      @@   @ ",
" ...   .   ...         .. +++   +   +++         ++ @@@   @   @@@         @@ ",
" ...   ..  ..   .     ... +++   ++  ++   +     +++ @@@   @@  @@   @     @@@ ",
" ...  ...       ..   .... +++  +++       ++   ++++ @@@  @@@       @@   @@@@ ",
" ...  ...      .......... +++  +++      ++++++++++ @@@  @@@      @@@@@@@@@@ ",
" ........................ ++++++++++++++++++++++++ @@@@@@@@@@@@@@@@@@@@@@@@ ",
" ........................ ++++++++++++++++++++++++ @@@@@@@@@@@@@@@@@@@@@@@@ ",
" ........................ ++++++++++++++++++++++++ @@@@@@@@@@@@@@@@@@@@@@@@ ",
" .......................  +++++++++++++++++++++++  @@@@@@@@@@@@@@@@@@@@@@@  ",
" .......................  +++++++++++++++++++++++  @@@@@@@@@@@@@@@@@@@@@@@  ",
"  .....................    +++++++++++++++++++++    @@@@@@@@@@@@@@@@@@@@@   ",
"    .................        +++++++++++++++++        @@@@@@@@@@@@@@@@@     ",
"                                                                            ",
"      .................        +++++++++++++++++        @@@@@@@@@@@@@@@@@   ",
"   .....................    +++++++++++++++++++++    @@@@@@@@@@@@@@@@@@@@@  ",
"  ......................   ++++++++++++++++++++++   @@@@@@@@@@@@@@@@@@@@@@  ",
" .......................  +++++++++++++++++++++++  @@@@@@@@@@@@@@@@@@@@@@@  ",
" ........................ ++++++++++++++++++++++++ @@@@@@@@@@@@@@@@@@@@@@@@ ",
" ........................ ++++++++++++++++++++++++ @@@@@@@@@@@@@@@@@@@@@@@@ ",
"   ......................   ++++++++++++++++++++++   @@@@@@@@@@@@@@@@@@@@@@ ",
"   .....  ...............   +++++  +++++++++++++++   @@@@@  @@@@@@@@@@@@@@@ ",
"    ...   ...............    +++   +++++++++++++++    @@@   @@@@@@@@@@@@@@@ ",
"          ......  ....  .          ++++++  ++++  +          @@@@@@  @@@@  @ ",
" .       ..    .  ...   . +       ++    +  +++   + @       @@    @  @@@   @ ",
" ...    ..        ...   . +++    ++        +++   + @@@    @@        @@@   @ ",
" ...  ...         ...  .. +++  +++         +++  ++ @@@  @@@         @@@  @@ ",
" ...  ...  ...     .   .. +++  +++  +++     +   ++ @@@  @@@  @@@     @   @@ ",
" ...  ...   .          .. +++  +++   +          ++ @@@  @@@   @          @@ ",
" ..   ...       .    .... ++   +++       +    ++++ @@   @@@       @    @@@@ ",
" ..   ....     .......... ++   ++++     ++++++++++ @@   @@@@     @@@@@@@@@@ ",
" ........................ ++++++++++++++++++++++++ @@@@@@@@@@@@@@@@@@@@@@@@ ",
" ........................ ++++++++++++++++++++++++ @@@@@@@@@@@@@@@@@@@@@@@@ ",
" ........................ ++++++++++++++++++++++++ @@@@@@@@@@@@@@@@@@@@@@@@ ",
"  .......................  +++++++++++++++++++++++  @@@@@@@@@@@@@@@@@@@@@@@ ",
"  ......................   ++++++++++++++++++++++   @@@@@@@@@@@@@@@@@@@@@@  ",
"  .....................    +++++++++++++++++++++    @@@@@@@@@@@@@@@@@@@@@   ",
"    .................        +++++++++++++++++        @@@@@@@@@@@@@@@@@     ",
"                                                                            "};
